[
  {
    "duration_time": "0.046440",
    "pts_time": "0.000000"
  },
  {
    "duration_time": "0.046440",
    "pts_time": "0.046440"
  },
  {
    "duration_time": "0.046440",
    "pts_time": "0.092880"
  },
  {
    "duration_time": "0.046440",
    "pts_time": "0.139320"
  },
  {
    "duration_time": "0.046440",
    "pts_time": "0.185760"
  },
  {
    "duration_time": "0.046440",
    "pts_time": "0.232200"
  },
  {
    "duration_time": "0.046440",
    "pts_time": "0.278639"
  },
  {
    "duration_time": "0.046440",
    "pts_time": "0.325079"
  },
  {
    "duration_time": "0.046440",
    "pts_time": "0.371519"
  },
  {
    "duration_time": "0.046440",
    "pts_time": "0.417959"
  },
  {
    "duration_time": "0.046440",
    "pts_time": "0.464399"
  },
  {
    "duration_time": "0.046440",
    "pts_time": "0.510839"
  },
  {
    "duration_time": "0.046440",
    "pts_time": "0.557279"
  },
  {
    "duration_time": "0.046440",
    "pts_time": "0.603719"
  },
  {
    "duration_time": "0.046440",
    "pts_time": "0.650159"
  },
  {
    "duration_time": "0.046440",
    "pts_time": "0.696599"
  },
  {
    "duration_time": "0.046440",
    "pts_time": "0.743039"
  },
  {
    "duration_time": "0.046440",
    "pts_time": "0.789478"
  },
  {
    "duration_time": "0.046440",
    "pts_time": "0.835918"
  },
  {
    "duration_time": "0.046440",
    "pts_time": "0.882358"
  },
  {
    "duration_time": "0.046440",
    "pts_time": "0.928798"
  },
  {
    "duration_time": "0.046440",
    "pts_time": "0.975238"
  },
  {
    "duration_time": "0.046440",
    "pts_time": "1.021678"
  },
  {
    "duration_time": "0.046440",
    "pts_time": "1.068118"
  },
  {
    "duration_time": "0.046440",
    "pts_time": "1.114558"
  },
  {
    "duration_time": "0.046440",
    "pts_time": "1.160998"
  },
  {
    "duration_time": "0.046440",
    "pts_time": "1.207438"
  },
  {
    "duration_time": "0.046440",
    "pts_time": "1.253878"
  },
  {
    "duration_time": "0.046440",
    "pts_time": "1.300317"
  },
  {
    "duration_time": "0.046440",
    "pts_time": "1.346757"
  },
  {
    "duration_time": "0.046440",
    "pts_time": "1.393197"
  },
  {
    "duration_time": "0.046440",
    "pts_time": "1.439637"
  },
  {
    "duration_time": "0.046440",
    "pts_time": "1.486077"
  },
  {
    "duration_time": "0.046440",
    "pts_time": "1.532517"
  },
  {
    "duration_time": "0.046440",
    "pts_time": "1.578957"
  },
  {
    "duration_time": "0.046440",
    "pts_time": "1.625397"
  },
  {
    "duration_time": "0.046440",
    "pts_time": "1.671837"
  },
  {
    "duration_time": "0.046440",
    "pts_time": "1.718277"
  },
  {
    "duration_time": "0.046440",
    "pts_time": "1.764717"
  },
  {
    "duration_time": "0.046440",
    "pts_time": "1.811156"
  },
  {
    "duration_time": "0.046440",
    "pts_time": "1.857596"
  },
  {
    "duration_time": "0.046440",
    "pts_time": "1.904036"
  },
  {
    "duration_time": "0.046440",
    "pts_time": "1.950476"
  },
  {
    "duration_time": "0.046440",
    "pts_time": "1.996916"
  },
  {
    "duration_time": "0.046440",
    "pts_time": "2.043356"
  },
  {
    "duration_time": "0.046440",
    "pts_time": "2.089796"
  },
  {
    "duration_time": "0.046440",
    "pts_time": "2.136236"
  },
  {
    "duration_time": "0.046440",
    "pts_time": "2.182676"
  },
  {
    "duration_time": "0.046440",
    "pts_time": "2.229116"
  },
  {
    "duration_time": "0.046440",
    "pts_time": "2.275556"
  },
  {
    "duration_time": "0.046440",
    "pts_time": "2.321995"
  },
  {
    "duration_time": "0.046440",
    "pts_time": "2.368435"
  },
  {
    "duration_time": "0.046440",
    "pts_time": "2.414875"
  },
  {
    "duration_time": "0.046440",
    "pts_time": "2.461315"
  },
  {
    "duration_time": "0.046440",
    "pts_time": "2.507755"
  },
  {
    "duration_time": "0.046440",
    "pts_time": "2.554195"
  },
  {
    "duration_time": "0.046440",
    "pts_time": "2.600635"
  },
  {
    "duration_time": "0.046440",
    "pts_time": "2.647075"
  },
  {
    "duration_time": "0.046440",
    "pts_time": "2.693515"
  },
  {
    "duration_time": "0.046440",
    "pts_time": "2.739955"
  },
  {
    "duration_time": "0.046440",
    "pts_time": "2.786395"
  },
  {
    "duration_time": "0.046440",
    "pts_time": "2.832834"
  },
  {
    "duration_time": "0.046440",
    "pts_time": "2.879274"
  },
  {
    "duration_time": "0.046440",
    "pts_time": "2.925714"
  },
  {
    "duration_time": "0.046440",
    "pts_time": "2.972154"
  },
  {
    "duration_time": "0.046440",
    "pts_time": "3.018594"
  },
  {
    "duration_time": "0.046440",
    "pts_time": "3.065034"
  },
  {
    "duration_time": "0.046440",
    "pts_time": "3.111474"
  },
  {
    "duration_time": "0.046440",
    "pts_time": "3.157914"
  },
  {
    "duration_time": "0.046440",
    "pts_time": "3.204354"
  },
  {
    "duration_time": "0.046440",
    "pts_time": "3.250794"
  },
  {
    "duration_time": "0.046440",
    "pts_time": "3.297234"
  },
  {
    "duration_time": "0.046440",
    "pts_time": "3.343673"
  },
  {
    "duration_time": "0.046440",
    "pts_time": "3.390113"
  },
  {
    "duration_time": "0.046440",
    "pts_time": "3.436553"
  },
  {
    "duration_time": "0.046440",
    "pts_time": "3.482993"
  },
  {
    "duration_time": "0.046440",
    "pts_time": "3.529433"
  },
  {
    "duration_time": "0.046440",
    "pts_time": "3.575873"
  },
  {
    "duration_time": "0.046440",
    "pts_time": "3.622313"
  },
  {
    "duration_time": "0.046440",
    "pts_time": "3.668753"
  },
  {
    "duration_time": "0.046440",
    "pts_time": "3.715193"
  },
  {
    "duration_time": "0.046440",
    "pts_time": "3.761633"
  },
  {
    "duration_time": "0.046440",
    "pts_time": "3.808073"
  },
  {
    "duration_time": "0.046440",
    "pts_time": "3.854512"
  },
  {
    "duration_time": "0.046440",
    "pts_time": "3.900952"
  },
  {
    "duration_time": "0.046440",
    "pts_time": "3.947392"
  },
  {
    "duration_time": "0.006168",
    "pts_time": "3.993832"
  }
]
